<svg width="16" height="15" viewBox="0 0 16 15" fill="none" xmlns="http://www.w3.org/2000/svg">
<path fill-rule="evenodd" clip-rule="evenodd" d="M8.79605 0.550097C8.39589 0.0223631 7.60254 0.0223638 7.20238 0.550097L6.20966 1.85932C5.99132 2.14727 5.63461 2.29502 5.27661 2.2458L3.64889 2.022C2.99278 1.93179 2.43179 2.49278 2.522 3.14889L2.7458 4.77661C2.79502 5.13461 2.64727 5.49132 2.35932 5.70966L1.0501 6.70238C0.522363 7.10254 0.522364 7.89589 1.0501 8.29605L2.35932 9.28877C2.64727 9.50711 2.79502 9.86382 2.7458 10.2218L2.522 11.8495C2.43179 12.5057 2.99278 13.0666 3.64889 12.9764L5.27661 12.7526C5.63461 12.7034 5.99132 12.8512 6.20966 13.1391L7.20238 14.4483C7.60254 14.9761 8.39589 14.9761 8.79605 14.4483L9.78877 13.1391C10.0071 12.8512 10.3638 12.7034 10.7218 12.7526L12.3495 12.9764C13.0057 13.0666 13.5666 12.5057 13.4764 11.8495L13.2526 10.2218C13.2034 9.86382 13.3512 9.50711 13.6391 9.28877L14.9483 8.29605C15.4761 7.89589 15.4761 7.10254 14.9483 6.70238L13.6391 5.70966C13.3512 5.49132 13.2034 5.13461 13.2526 4.77661L13.4764 3.14889C13.5666 2.49278 13.0057 1.93179 12.3495 2.022L10.7218 2.2458C10.3638 2.29502 10.0071 2.14727 9.78877 1.85932L8.79605 0.550097ZM11.095 6.19556C11.3879 5.90267 11.3879 5.42779 11.095 5.1349C10.8021 4.84201 10.3273 4.84201 10.0344 5.1349L7.26471 7.90457L6.32837 6.96823C6.03548 6.67534 5.56061 6.67534 5.26771 6.96823C4.97482 7.26113 4.97482 7.736 5.26771 8.02889L6.73438 9.49556C6.87503 9.63621 7.0658 9.71523 7.26471 9.71523C7.46362 9.71523 7.65439 9.63621 7.79504 9.49556L11.095 6.19556Z" fill="#0F8546"/>
</svg>
